<mxfile host="65bd71144e">
    <diagram id="-DER0UVd-RKUZU5HvLdn" name="Page-1">
        <mxGraphModel dx="4773" dy="2039" grid="1" gridSize="10" guides="1" tooltips="1" connect="1" arrows="1" fold="1" page="1" pageScale="1" pageWidth="850" pageHeight="1100" math="0" shadow="0">
            <root>
                <mxCell id="0"/>
                <mxCell id="1" parent="0"/>
                <mxCell id="18" value="" style="edgeStyle=none;html=1;" edge="1" parent="1" source="2" target="17">
                    <mxGeometry relative="1" as="geometry"/>
                </mxCell>
                <mxCell id="2" value="Container4" style="swimlane;" vertex="1" parent="1">
                    <mxGeometry x="530" y="210" width="200" height="60" as="geometry"/>
                </mxCell>
                <mxCell id="6" value="Jenkins" style="text;html=1;align=center;verticalAlign=middle;resizable=0;points=[];autosize=1;strokeColor=none;fillColor=none;" vertex="1" parent="2">
                    <mxGeometry x="70" y="30" width="60" height="30" as="geometry"/>
                </mxCell>
                <mxCell id="54" value="" style="edgeStyle=none;html=1;fontColor=default;" edge="1" parent="1" source="3">
                    <mxGeometry relative="1" as="geometry">
                        <mxPoint x="400" y="300" as="targetPoint"/>
                    </mxGeometry>
                </mxCell>
                <mxCell id="3" value="Container3" style="swimlane;" vertex="1" parent="1">
                    <mxGeometry x="540" y="490" width="200" height="65" as="geometry"/>
                </mxCell>
                <mxCell id="10" value="File server" style="text;html=1;align=center;verticalAlign=middle;resizable=0;points=[];autosize=1;strokeColor=none;fillColor=none;" vertex="1" parent="3">
                    <mxGeometry x="60" y="35" width="80" height="30" as="geometry"/>
                </mxCell>
                <mxCell id="15" value="" style="edgeStyle=none;html=1;exitX=0.5;exitY=0.8;exitDx=0;exitDy=0;exitPerimeter=0;entryX=1;entryY=1;entryDx=0;entryDy=0;" edge="1" parent="1" source="13" target="5">
                    <mxGeometry relative="1" as="geometry">
                        <mxPoint x="470" y="370" as="targetPoint"/>
                    </mxGeometry>
                </mxCell>
                <mxCell id="4" value="Container2" style="swimlane;" vertex="1" parent="1">
                    <mxGeometry x="530" y="330" width="200" height="60" as="geometry"/>
                </mxCell>
                <mxCell id="8" value="Postgre" style="text;html=1;align=center;verticalAlign=middle;resizable=0;points=[];autosize=1;strokeColor=none;fillColor=none;" vertex="1" parent="4">
                    <mxGeometry x="70" y="25" width="60" height="30" as="geometry"/>
                </mxCell>
                <mxCell id="14" value="" style="edgeStyle=none;html=1;exitX=1;exitY=0.75;exitDx=0;exitDy=0;" edge="1" parent="1" source="5" target="13">
                    <mxGeometry relative="1" as="geometry"/>
                </mxCell>
                <mxCell id="13" value="" style="shape=waypoint;sketch=0;size=6;pointerEvents=1;points=[];fillColor=default;resizable=0;rotatable=0;perimeter=centerPerimeter;snapToPoint=1;fontStyle=1;startSize=23;" vertex="1" parent="1">
                    <mxGeometry x="520" y="350" width="20" height="20" as="geometry"/>
                </mxCell>
                <mxCell id="16" value="Contiainer Runtime Interface on Ubuntu 24 LT" style="swimlane;" vertex="1" parent="1">
                    <mxGeometry x="240" y="70" width="540" height="560" as="geometry"/>
                </mxCell>
                <mxCell id="17" value="" style="shape=waypoint;sketch=0;size=6;pointerEvents=1;points=[];fillColor=default;resizable=0;rotatable=0;perimeter=centerPerimeter;snapToPoint=1;fontStyle=1;startSize=23;" vertex="1" parent="16">
                    <mxGeometry x="280" y="10" width="20" height="20" as="geometry"/>
                </mxCell>
                <mxCell id="70" value="port2" style="text;html=1;align=center;verticalAlign=middle;resizable=0;points=[];autosize=1;strokeColor=none;fillColor=none;fontColor=default;" vertex="1" parent="16">
                    <mxGeometry x="-25" y="385" width="50" height="30" as="geometry"/>
                </mxCell>
                <mxCell id="19" value="SSH Access" style="text;html=1;align=center;verticalAlign=middle;resizable=0;points=[];autosize=1;strokeColor=none;fillColor=none;" vertex="1" parent="1">
                    <mxGeometry x="555" y="125" width="90" height="30" as="geometry"/>
                </mxCell>
                <mxCell id="23" value="" style="edgeStyle=none;html=1;" edge="1" parent="1" source="20" target="22">
                    <mxGeometry relative="1" as="geometry"/>
                </mxCell>
                <mxCell id="20" value="Git hub hooker/ Code Management" style="swimlane;" vertex="1" parent="1">
                    <mxGeometry x="490" y="-290" width="260" height="150" as="geometry"/>
                </mxCell>
                <mxCell id="82" value="make event&lt;br&gt;" style="text;html=1;align=center;verticalAlign=middle;resizable=0;points=[];autosize=1;strokeColor=none;fillColor=none;fontColor=default;" vertex="1" parent="20">
                    <mxGeometry x="85" y="35" width="90" height="30" as="geometry"/>
                </mxCell>
                <mxCell id="21" value="Home network dynamic IP address" style="swimlane;" vertex="1" parent="1">
                    <mxGeometry x="200" width="640" height="680" as="geometry"/>
                </mxCell>
                <mxCell id="22" value="" style="shape=waypoint;sketch=0;size=6;pointerEvents=1;points=[];fillColor=default;resizable=0;rotatable=0;perimeter=centerPerimeter;snapToPoint=1;fontStyle=1;startSize=23;" vertex="1" parent="21">
                    <mxGeometry x="310" width="20" height="20" as="geometry"/>
                </mxCell>
                <mxCell id="52" value="" style="edgeStyle=none;html=1;fontColor=default;" edge="1" parent="21" source="49" target="51">
                    <mxGeometry relative="1" as="geometry"/>
                </mxCell>
                <mxCell id="49" value="" style="shape=waypoint;sketch=0;size=6;pointerEvents=1;points=[];fillColor=default;resizable=0;rotatable=0;perimeter=centerPerimeter;snapToPoint=1;fontStyle=1;startSize=23;" vertex="1" parent="21">
                    <mxGeometry x="30" y="240" width="20" height="20" as="geometry"/>
                </mxCell>
                <mxCell id="66" value="" style="edgeStyle=none;html=1;fontColor=default;" edge="1" parent="21" source="63" target="65">
                    <mxGeometry relative="1" as="geometry"/>
                </mxCell>
                <mxCell id="63" value="" style="shape=waypoint;sketch=0;size=6;pointerEvents=1;points=[];fillColor=none;resizable=0;rotatable=0;perimeter=centerPerimeter;snapToPoint=1;" vertex="1" parent="21">
                    <mxGeometry x="-10" y="190" width="20" height="20" as="geometry"/>
                </mxCell>
                <mxCell id="69" value="" style="edgeStyle=none;html=1;fontColor=default;" edge="1" parent="21" source="65" target="68">
                    <mxGeometry relative="1" as="geometry"/>
                </mxCell>
                <mxCell id="65" value="" style="shape=waypoint;sketch=0;size=6;pointerEvents=1;points=[];fillColor=none;resizable=0;rotatable=0;perimeter=centerPerimeter;snapToPoint=1;" vertex="1" parent="21">
                    <mxGeometry x="30" y="420" width="20" height="20" as="geometry"/>
                </mxCell>
                <mxCell id="5" value="Container1" style="swimlane;" vertex="1" parent="21">
                    <mxGeometry x="70" y="240" width="200" height="60" as="geometry"/>
                </mxCell>
                <mxCell id="7" value="Web application" style="text;html=1;align=center;verticalAlign=middle;resizable=0;points=[];autosize=1;strokeColor=none;fillColor=none;" vertex="1" parent="5">
                    <mxGeometry x="45" y="25" width="110" height="30" as="geometry"/>
                </mxCell>
                <mxCell id="51" value="" style="shape=waypoint;sketch=0;size=6;pointerEvents=1;points=[];fillColor=default;resizable=0;rotatable=0;perimeter=centerPerimeter;snapToPoint=1;fontStyle=1;startSize=23;" vertex="1" parent="5">
                    <mxGeometry x="-10" y="25" width="20" height="20" as="geometry"/>
                </mxCell>
                <mxCell id="68" value="" style="shape=waypoint;sketch=0;size=6;pointerEvents=1;points=[];fillColor=none;resizable=0;rotatable=0;perimeter=centerPerimeter;snapToPoint=1;" vertex="1" parent="21">
                    <mxGeometry x="330" y="510" width="20" height="20" as="geometry"/>
                </mxCell>
                <mxCell id="71" value="port2" style="text;html=1;align=center;verticalAlign=middle;resizable=0;points=[];autosize=1;strokeColor=none;fillColor=none;fontColor=default;" vertex="1" parent="21">
                    <mxGeometry x="15" y="200" width="50" height="30" as="geometry"/>
                </mxCell>
                <mxCell id="25" value="&lt;font color=&quot;#b31919&quot;&gt;HTTP&lt;br&gt;Vulnalability communication&lt;/font&gt;" style="text;html=1;align=center;verticalAlign=middle;resizable=0;points=[];autosize=1;strokeColor=none;fillColor=none;" vertex="1" parent="1">
                    <mxGeometry x="490" y="-100" width="170" height="40" as="geometry"/>
                </mxCell>
                <mxCell id="33" value="" style="edgeStyle=none;html=1;fontColor=default;startArrow=none;" edge="1" parent="1" source="34" target="32">
                    <mxGeometry relative="1" as="geometry"/>
                </mxCell>
                <mxCell id="26" value="AWS EC2" style="swimlane;fontColor=default;" vertex="1" parent="1">
                    <mxGeometry x="-590" y="110" width="460" height="280" as="geometry"/>
                </mxCell>
                <mxCell id="28" value="NginX Proxy" style="swimlane;fontColor=default;" vertex="1" parent="26">
                    <mxGeometry x="165" y="95" width="115" height="100" as="geometry"/>
                </mxCell>
                <mxCell id="73" value="redirect to https" style="text;html=1;align=center;verticalAlign=middle;resizable=0;points=[];autosize=1;strokeColor=none;fillColor=none;fontColor=default;" vertex="1" parent="28">
                    <mxGeometry y="30" width="110" height="30" as="geometry"/>
                </mxCell>
                <mxCell id="74" value="Route Table" style="text;html=1;align=center;verticalAlign=middle;resizable=0;points=[];autosize=1;strokeColor=none;fillColor=none;fontColor=default;" vertex="1" parent="28">
                    <mxGeometry x="10" y="60" width="90" height="30" as="geometry"/>
                </mxCell>
                <mxCell id="75" style="edgeStyle=none;html=1;fontColor=default;" edge="1" parent="26">
                    <mxGeometry relative="1" as="geometry">
                        <mxPoint x="160" y="165" as="targetPoint"/>
                        <mxPoint y="164.5" as="sourcePoint"/>
                    </mxGeometry>
                </mxCell>
                <mxCell id="27" value="T2 micro" style="text;html=1;align=center;verticalAlign=middle;resizable=0;points=[];autosize=1;strokeColor=none;fillColor=none;fontColor=default;" vertex="1" parent="1">
                    <mxGeometry x="-595" y="145" width="70" height="30" as="geometry"/>
                </mxCell>
                <mxCell id="50" value="" style="edgeStyle=none;html=1;fontColor=default;" edge="1" parent="1" source="32" target="49">
                    <mxGeometry relative="1" as="geometry"/>
                </mxCell>
                <mxCell id="32" value="" style="shape=waypoint;sketch=0;size=6;pointerEvents=1;points=[];fillColor=default;resizable=0;rotatable=0;perimeter=centerPerimeter;snapToPoint=1;fontStyle=1;startSize=23;" vertex="1" parent="1">
                    <mxGeometry x="190" y="190" width="20" height="20" as="geometry"/>
                </mxCell>
                <mxCell id="35" value="" style="edgeStyle=none;html=1;fontColor=default;endArrow=none;" edge="1" parent="1" target="34">
                    <mxGeometry relative="1" as="geometry">
                        <mxPoint x="-130" y="200" as="sourcePoint"/>
                        <mxPoint x="200" y="200" as="targetPoint"/>
                    </mxGeometry>
                </mxCell>
                <mxCell id="34" value="&lt;font color=&quot;#b31919&quot;&gt;HTTP&lt;br&gt;Vulnalability communication&lt;/font&gt;" style="text;html=1;align=center;verticalAlign=middle;resizable=0;points=[];autosize=1;strokeColor=none;fillColor=none;" vertex="1" parent="1">
                    <mxGeometry x="-60" y="180" width="170" height="40" as="geometry"/>
                </mxCell>
                <mxCell id="40" style="edgeStyle=none;html=1;fontColor=default;" edge="1" parent="1" source="38">
                    <mxGeometry relative="1" as="geometry">
                        <mxPoint x="-590" y="270" as="targetPoint"/>
                    </mxGeometry>
                </mxCell>
                <mxCell id="38" value="&lt;span style=&quot;color: rgb(240, 240, 240); font-family: Helvetica; font-size: 12px; font-style: normal; font-variant-ligatures: normal; font-variant-caps: normal; font-weight: 400; letter-spacing: normal; orphans: 2; text-align: center; text-indent: 0px; text-transform: none; widows: 2; word-spacing: 0px; -webkit-text-stroke-width: 0px; background-color: rgb(42, 37, 47); text-decoration-thickness: initial; text-decoration-style: initial; text-decoration-color: initial; float: none; display: inline !important;&quot;&gt;HTTPS over TLS&lt;/span&gt;" style="text;whiteSpace=wrap;html=1;fontColor=default;" vertex="1" parent="1">
                    <mxGeometry x="-730" y="250" width="100" height="40" as="geometry"/>
                </mxCell>
                <mxCell id="43" style="edgeStyle=none;html=1;entryX=0;entryY=0.5;entryDx=0;entryDy=0;fontColor=default;" edge="1" parent="1" source="42" target="38">
                    <mxGeometry relative="1" as="geometry"/>
                </mxCell>
                <mxCell id="42" value="" style="shape=actor;whiteSpace=wrap;html=1;fontColor=default;" vertex="1" parent="1">
                    <mxGeometry x="-810" y="240" width="40" height="60" as="geometry"/>
                </mxCell>
                <mxCell id="44" value="Client" style="text;html=1;align=center;verticalAlign=middle;resizable=0;points=[];autosize=1;strokeColor=none;fillColor=none;fontColor=default;" vertex="1" parent="1">
                    <mxGeometry x="-815" y="315" width="50" height="30" as="geometry"/>
                </mxCell>
                <mxCell id="47" style="edgeStyle=none;html=1;entryX=0.1;entryY=-0.25;entryDx=0;entryDy=0;entryPerimeter=0;fontColor=default;" edge="1" parent="1" source="22" target="17">
                    <mxGeometry relative="1" as="geometry"/>
                </mxCell>
                <mxCell id="76" value="" style="shape=actor;whiteSpace=wrap;html=1;fontColor=default;" vertex="1" parent="1">
                    <mxGeometry x="270" y="-250" width="70" height="70" as="geometry"/>
                </mxCell>
                <mxCell id="78" style="edgeStyle=none;html=1;fontColor=default;" edge="1" parent="1" source="77">
                    <mxGeometry relative="1" as="geometry">
                        <mxPoint x="500" y="-205" as="targetPoint"/>
                    </mxGeometry>
                </mxCell>
                <mxCell id="77" value="push code" style="text;html=1;align=center;verticalAlign=middle;resizable=0;points=[];autosize=1;strokeColor=none;fillColor=none;fontColor=default;" vertex="1" parent="1">
                    <mxGeometry x="370" y="-220" width="80" height="30" as="geometry"/>
                </mxCell>
                <mxCell id="80" value="web hooker" style="text;html=1;align=center;verticalAlign=middle;resizable=0;points=[];autosize=1;strokeColor=none;fillColor=none;fontColor=default;" vertex="1" parent="1">
                    <mxGeometry x="485" y="-255" width="90" height="30" as="geometry"/>
                </mxCell>
            </root>
        </mxGraphModel>
    </diagram>
</mxfile>